# xmcd CD database file generated by libcdaudio 0.99.6
# 
# Track frame offsets:
#       180
#       13837
#       41899
#       70067
#       85888
#       108350
#       127334
#       183931
#       205991
#       229940
# 
# Disc length: 3366 seconds
# 
# Revision: 1
# Processed by: cddbd v1.4PL0 Copyright (c) Steve Scherf et al.
# Submitted via: libcdaudio 0.99.6
# 
DISCID=8e0d240a
DTITLE=J. Monque'D - After The Beep
DYEAR=1900
DGENRE=
TTITLE0=Harmoni Gras
TTITLE1=After The Beep
TTITLE2=Fiddlin' Woman Blues
TTITLE3=And Now, Bologna
TTITLE4=Canzone Per Lyudmilla
TTITLE5=No Doubt About It
TTITLE6=If You See Kay
TTITLE7=Sunnyland
TTITLE8=Got Love If You Want It
TTITLE9=Indian Princess
EXTD=
EXTT0=
EXTT1=
EXTT2=
EXTT3=
EXTT4=
EXTT5=
EXTT6=
EXTT7=
EXTT8=
EXTT9=
PLAYORDER=
